<?xml version="1.0" encoding="utf-8"?>
<!-- Generator: Adobe Illustrator 15.1.0, SVG Export Plug-In . SVG Version: 6.00 Build 0)  -->
<!DOCTYPE svg PUBLIC "-//W3C//DTD SVG 1.1//EN" "http://www.w3.org/Graphics/SVG/1.1/DTD/svg11.dtd">
<svg version="1.1" id="Paper_plane" xmlns="http://www.w3.org/2000/svg" xmlns:xlink="http://www.w3.org/1999/xlink" x="0px"
	 y="0px" width="547.7px" height="440.517px" viewBox="21.184 201.674 547.7 440.517"
	 enable-background="new 21.184 201.674 547.7 440.517" xml:space="preserve">
<g>
	<path fill="#F08D24" d="M207.348,635.115c0,7.321,4.138,9.375,9.853,4.196c7.471-6.815,84.827-76.226,84.827-76.226l-94.68-48.932
		V635.115z"/>
	<path fill="#E8341C" d="M553.801,202.703c-10.239,3.602-515.542,181.68-525.514,185.192c-8.452,2.977-10.328,10.269-0.297,14.257
		c11.935,4.792,112.983,45.271,112.983,45.271l66.97,26.817c0,0,322.582-236.862,326.928-240.076c4.404-3.215,9.465,2.827,6.28,6.28
		c-3.186,3.482-234.272,253.381-234.272,253.381v0.06l-13.453,14.972l17.828,9.584c0,0,138.402,74.528,148.284,79.826
		c8.661,4.644,19.882,0.804,22.383-9.94c2.946-12.68,84.679-364.937,86.494-372.794C570.767,205.323,564.01,199.102,553.801,202.703
		z"/>
</g>
</svg>
