<svg xmlns="http://www.w3.org/2000/svg" width="416.713" height="535.752" viewBox="89.283 153.069 416.713 535.752"><path d="M489.082 569.766C428.215 417.76 357.168 377.698 357.168 301.89v-89.293h14.882c8.215 0 14.882-6.667 14.882-14.882V167.95c0-8.214-6.667-14.88-14.882-14.88H223.23c-8.215 0-14.882 6.666-14.882 14.88v29.765c0 8.215 6.667 14.882 14.882 14.882h14.883v89.292c0 75.808-71.047 115.87-131.915 267.875C86.822 618.132 37.056 688.82 297.64 688.82s210.818-70.688 191.442-119.054z"/><path fill="#68C244" d="M442.953 620.882c-20.895 6.25-62.475 13.364-143.313 13.364s-122.42-7.113-143.313-13.364c-7.41-2.202-10.3-10.805-7.68-18.69 6.55-19.943 18.9-54.41 41.998-92.895 56.432-94.025 114.978 14.793 163.7 14.793s35.36-46.462 54.29-14.793c23.038 38.515 35.45 72.95 41.998 92.894 2.62 7.887-.268 16.46-7.68 18.692z"/></svg>