<?xml version="1.0" encoding="utf-8"?>
<!-- Generator: Adobe Illustrator 15.1.0, SVG Export Plug-In . SVG Version: 6.00 Build 0)  -->
<!DOCTYPE svg PUBLIC "-//W3C//DTD SVG 1.1//EN" "http://www.w3.org/Graphics/SVG/1.1/DTD/svg11.dtd">
<svg version="1.1" id="Code" xmlns="http://www.w3.org/2000/svg" xmlns:xlink="http://www.w3.org/1999/xlink" x="0px" y="0px"
	 width="595.578px" height="416.698px" viewBox="-0.149 212.595 595.578 416.698"
	 enable-background="new -0.149 212.595 595.578 416.698" xml:space="preserve">
<g>
	<path d="M200.818,282.096c-10.923-12.292-29.734-13.334-41.997-2.47l-158.97,141.32l150.606,133.878
		c5.655,5.03,12.739,7.501,19.763,7.501c8.186,0,16.371-3.363,22.234-10.001c10.923-12.292,9.822-31.104-2.471-42.026
		L89.441,420.945l108.906-96.823C210.64,313.199,211.741,294.389,200.818,282.096z"/>
	<path d="M444.823,287.066c-12.292-10.923-31.103-9.822-41.997,2.471c-10.923,12.292-9.821,31.104,2.471,42.026l100.543,89.382
		l-108.906,96.792c-12.293,10.924-13.394,29.734-2.471,42.027c5.863,6.637,14.049,10.001,22.233,10.001
		c7.024,0,14.108-2.471,19.764-7.501l158.97-141.319L444.823,287.066z"/>
	<path fill="#68C244" d="M332.285,213.014c-16.281-2.738-31.58,8.245-34.229,24.466l-59.528,357.168
		c-2.708,16.222,8.245,31.55,24.466,34.259c1.667,0.268,3.274,0.387,4.911,0.387c14.287,0,26.907-10.328,29.318-24.853
		l59.527-357.168C359.46,231.051,348.506,215.722,332.285,213.014z"/>
</g>
</svg>
